<svg id="visual" viewBox="0 0 960 200" width="960" height="200" xmlns="http://www.w3.org/2000/svg" xmlns:xlink="http://www.w3.org/1999/xlink" version="1.1"><path d="M0 43L20 43.8C40 44.7 80 46.3 120 48.3C160 50.3 200 52.7 240 57.7C280 62.7 320 70.3 360 67.8C400 65.3 440 52.7 480 50C520 47.3 560 54.7 600 60.2C640 65.7 680 69.3 720 68.5C760 67.7 800 62.3 840 61.2C880 60 920 63 940 64.5L960 66L960 201L940 201C920 201 880 201 840 201C800 201 760 201 720 201C680 201 640 201 600 201C560 201 520 201 480 201C440 201 400 201 360 201C320 201 280 201 240 201C200 201 160 201 120 201C80 201 40 201 20 201L0 201Z" fill="#61bde4"></path><path d="M0 87L20 83.8C40 80.7 80 74.3 120 77.3C160 80.3 200 92.7 240 94.3C280 96 320 87 360 84.5C400 82 440 86 480 88.3C520 90.7 560 91.3 600 89C640 86.7 680 81.3 720 83.5C760 85.7 800 95.3 840 99.8C880 104.3 920 103.7 940 103.3L960 103L960 201L940 201C920 201 880 201 840 201C800 201 760 201 720 201C680 201 640 201 600 201C560 201 520 201 480 201C440 201 400 201 360 201C320 201 280 201 240 201C200 201 160 201 120 201C80 201 40 201 20 201L0 201Z" fill="#90cdeb"></path><path d="M0 120L20 121.3C40 122.7 80 125.3 120 125.3C160 125.3 200 122.7 240 118C280 113.3 320 106.7 360 108C400 109.3 440 118.7 480 117.8C520 117 560 106 600 102.3C640 98.7 680 102.3 720 107.8C760 113.3 800 120.7 840 123.3C880 126 920 124 940 123L960 122L960 201L940 201C920 201 880 201 840 201C800 201 760 201 720 201C680 201 640 201 600 201C560 201 520 201 480 201C440 201 400 201 360 201C320 201 280 201 240 201C200 201 160 201 120 201C80 201 40 201 20 201L0 201Z" fill="#b7def2"></path><path d="M0 134L20 137.2C40 140.3 80 146.7 120 147C160 147.3 200 141.7 240 141.3C280 141 320 146 360 147C400 148 440 145 480 144.5C520 144 560 146 600 143.3C640 140.7 680 133.3 720 130.7C760 128 800 130 840 133.3C880 136.7 920 141.3 940 143.7L960 146L960 201L940 201C920 201 880 201 840 201C800 201 760 201 720 201C680 201 640 201 600 201C560 201 520 201 480 201C440 201 400 201 360 201C320 201 280 201 240 201C200 201 160 201 120 201C80 201 40 201 20 201L0 201Z" fill="#dceef9"></path><path d="M0 172L20 169.3C40 166.7 80 161.3 120 160.8C160 160.3 200 164.7 240 164.8C280 165 320 161 360 160.3C400 159.7 440 162.3 480 164.3C520 166.3 560 167.7 600 166.2C640 164.7 680 160.3 720 157.8C760 155.3 800 154.7 840 157.2C880 159.7 920 165.3 940 168.2L960 171L960 201L940 201C920 201 880 201 840 201C800 201 760 201 720 201C680 201 640 201 600 201C560 201 520 201 480 201C440 201 400 201 360 201C320 201 280 201 240 201C200 201 160 201 120 201C80 201 40 201 20 201L0 201Z" fill="#ffffff"></path></svg>